<svg width="120" height="120" viewBox="0 0 120 120" fill="none" xmlns="http://www.w3.org/2000/svg">
<circle cx="60" cy="59.9999" r="52" fill="#2D6420"/>
<path d="M63.3001 41.9616C60.1122 41.9616 57.5186 39.2786 57.5186 35.9808C57.5186 32.6829 60.1122 29.9999 63.3001 29.9999C66.4881 29.9999 69.0817 32.6829 69.0817 35.9808C69.0817 39.2786 66.4881 41.9616 63.3001 41.9616ZM63.3001 32.6669C61.5339 32.6669 60.0967 34.1535 60.0967 35.9808C60.0967 37.808 61.5337 39.2946 63.3001 39.2946C65.0665 39.2946 66.5035 37.808 66.5035 35.9808C66.5035 34.1535 65.0663 32.6669 63.3001 32.6669Z" fill="#FFEEBE"/>
<path d="M57.8001 88.9728C54.6122 88.9728 52.0186 86.2898 52.0186 82.9919C52.0186 79.6941 54.6122 77.011 57.8001 77.011C60.9881 77.011 63.5817 79.6941 63.5817 82.9919C63.5817 86.2898 60.9881 88.9728 57.8001 88.9728ZM57.8001 79.6781C56.0337 79.6781 54.5967 81.1647 54.5967 82.9919C54.5967 84.8192 56.0339 86.3058 57.8001 86.3058C59.5663 86.3058 61.0035 84.8192 61.0035 82.9919C61.0035 81.1647 59.5665 79.6781 57.8001 79.6781Z" fill="#FFEEBE"/>
<path d="M96.5557 85.8203C96.1589 86.4318 95.3581 86.5945 94.7671 86.1843C94.1761 85.7738 94.0185 84.9454 94.4154 84.3339C98.9989 77.2704 101.422 69.0227 101.422 60.4827C101.422 44.5095 92.8379 30.0393 79.5202 22.6774C83.0072 27.7451 85.6078 35.1748 84.1895 42.5016C82.8788 49.272 77.6631 58.114 60.258 61.7894C48.8647 64.1945 40.9779 68.7293 36.8165 75.268C32.7936 81.5888 32.9953 88.7436 33.9398 93.788C41.2856 99.9451 50.5206 103.333 60 103.333C71.9744 103.333 83.3594 97.9713 91.2362 88.623C91.7039 88.0679 92.5184 88.0101 93.0548 88.4939C93.5916 88.9779 93.6473 89.8202 93.1796 90.3754C84.8131 100.305 72.7196 106 60 106C49.7789 106 39.8232 102.294 31.9637 95.5639C31.9613 95.5619 31.9589 95.5598 31.9565 95.5578C31.9528 95.5544 31.9488 95.5514 31.9448 95.548C21.8116 86.8614 16 74.0805 16 60.4827C16 48.7791 20.2866 37.6578 28.0704 29.1674C28.3241 28.8909 28.6646 28.7515 29.006 28.7515C29.3244 28.7515 29.6436 28.8729 29.8928 29.1174C30.4093 29.6242 30.431 30.4682 29.941 31.0026C22.6136 38.9954 18.5781 49.4649 18.5781 60.4827C18.5781 72.05 23.0465 82.9883 30.9462 91.0237C30.4555 85.8847 30.9915 79.5699 34.663 73.8013C39.215 66.6487 47.653 61.7282 59.7422 59.1762C72.4221 56.4987 80.0018 50.5516 81.6614 41.978C82.4512 37.8985 81.8395 33.2108 79.9392 28.7785C78.5191 25.466 76.4836 22.5291 74.3493 20.6603C74.0539 20.4017 74 20.5 74 20.5C74.5 19.5 74.5 18.6777 74.4772 17.4892C92.1358 23.8508 104 41.1286 104 60.4827C104 69.5542 101.426 78.3157 96.5557 85.8203Z" fill="#FFEEBE"/>
<path d="M43.9999 20.1479C40.5 21.1824 35 25.3203 33.6364 26.6429C33.0862 27.1101 32.2741 27.0276 31.8221 26.4583C31.3704 25.8892 31.4501 25.0489 32.0005 24.5814C34 22.7341 37 20.6651 43.9999 17.0445C44.6053 16.7313 44.9594 18.1479 44.9999 18.8561C45.0424 19.5913 44.7105 20.104 43.9999 20.1479Z" fill="#FFEEBE"/>
<path fill-rule="evenodd" clip-rule="evenodd" d="M87.2812 39.2723C85.8748 37.5439 84.3136 36.372 82.7632 35.971L83.2367 34.0289C85.3606 34.5781 87.2627 36.1023 88.8181 38.0139C90.3835 39.9377 91.6668 42.3366 92.5338 44.7933C92.9964 46.1042 92.0039 47.4036 90.6655 47.3578C87.3534 47.2444 83.5232 46.7532 80.8586 46.3355L81.1413 44.3538C83.7492 44.7626 87.4459 45.2353 90.6224 45.3502C89.8224 43.1141 88.6586 40.9651 87.2812 39.2723Z" fill="#FFEEBE"/>
<path fill-rule="evenodd" clip-rule="evenodd" d="M69.981 1.25819C71.6531 -1.0764 75.3339 0.0460596 75.4187 2.9164L75.9251 20.0601C75.9597 21.2304 74.9894 22.17 73.8329 22.1216C68.3751 21.8929 64.1333 22.0977 60.0661 22.9149C55.9994 23.7319 52.0618 25.1703 47.2217 27.456C46.0252 28.0211 44.5933 27.2966 44.3781 25.9665L42.4688 14.1698C42.1032 11.9107 44.3001 10.0905 46.4518 10.8698L50.8614 12.4667C51.4461 12.6785 52.0801 12.311 52.187 11.6984L53.3106 5.2608C53.7548 2.71592 56.9936 1.88505 58.608 3.90184L62.7862 9.12153C63.2003 9.63889 63.994 9.61765 64.3799 9.07888L69.981 1.25819ZM73.4196 2.97546C73.3913 2.01868 72.1644 1.64452 71.607 2.42272L66.0059 10.2434C64.8483 11.8597 62.4672 11.9235 61.2248 10.3714L57.0466 5.15168C56.5085 4.47941 55.4289 4.75637 55.2808 5.60467L54.1572 12.0423C53.8365 13.8799 51.9343 14.9824 50.1804 14.3472L45.7708 12.7503C45.0536 12.4905 44.3213 13.0972 44.4432 13.8503L46.3523 25.6462C46.3527 25.6465 46.3533 25.6468 46.3539 25.6471C46.3576 25.6491 46.3607 25.6495 46.3618 25.6495L46.3625 25.6495C46.3627 25.6494 46.3643 25.6491 46.3677 25.6475C51.2946 23.3208 55.3926 21.8138 59.6721 20.954C63.951 20.0944 68.3657 19.8907 73.9166 20.1233C73.9179 20.1234 73.9188 20.1234 73.9194 20.1233C73.9199 20.1233 73.9202 20.1232 73.9203 20.1232L73.9211 20.123C73.9218 20.1227 73.9234 20.1219 73.9251 20.1202C73.9255 20.1198 73.9258 20.1195 73.926 20.1192L73.4196 2.97546Z" fill="#FFEEBE"/>
<path fill-rule="evenodd" clip-rule="evenodd" d="M50.7971 101.192C52.7171 99.7155 54.1843 97.6673 54.7944 96.4472C55.0414 95.9532 54.8412 95.3525 54.3472 95.1055C53.8532 94.8586 53.2525 95.0588 53.0055 95.5528C52.5156 96.5326 51.2329 98.3339 49.5778 99.6067C47.9163 100.885 46.1416 101.452 44.4472 100.604L43.5527 102.393C46.2584 103.746 48.8837 102.664 50.7971 101.192Z" fill="#FFEEBE"/>
<path fill-rule="evenodd" clip-rule="evenodd" d="M68.5577 69.8101C68.7853 69.0136 69.6155 68.5523 70.4121 68.7799C74.6124 69.98 79.2384 73.2052 83.0011 77.3229C86.7716 81.4491 89.8427 86.6539 90.7296 91.9756C90.8658 92.7928 90.3138 93.5656 89.4966 93.7018C88.6795 93.838 87.9066 93.286 87.7704 92.4688C87.0074 87.8905 84.3034 83.1953 80.7865 79.3466C77.2616 75.4892 73.0876 72.6644 69.5879 71.6645C68.7914 71.4369 68.3301 70.6067 68.5577 69.8101Z" fill="#FFEEBE"/>
<path fill-rule="evenodd" clip-rule="evenodd" d="M77.5851 62.8719C77.9107 62.1101 78.7923 61.7567 79.554 62.0824C85.0099 64.4151 89.6867 67.8984 92.919 73.256C93.347 73.9654 93.1189 74.8873 92.4095 75.3153C91.7002 75.7432 90.7783 75.5151 90.3503 74.8058C87.5122 70.1016 83.3891 66.9848 78.3746 64.8408C77.6128 64.5151 77.2594 63.6336 77.5851 62.8719Z" fill="#FFEEBE"/>
<path fill-rule="evenodd" clip-rule="evenodd" d="M84.9373 56.7751C85.1209 55.9673 85.9246 55.4613 86.7325 55.6449C90.3772 56.4732 94.0849 58.4544 96.6487 60.558C97.2891 61.0835 97.3823 62.0286 96.8568 62.6691C96.3313 63.3095 95.3862 63.4027 94.7457 62.8772C92.499 61.0338 89.2069 59.2837 86.0676 58.5703C85.2598 58.3867 84.7537 57.583 84.9373 56.7751Z" fill="#FFEEBE"/>
</svg>
