<svg width="120" height="120" viewBox="0 0 120 120" fill="none" xmlns="http://www.w3.org/2000/svg">
<circle cx="60" cy="60" r="52" fill="#2D6420"/>
<path d="M114.556 15.1885C113.168 10.8267 111.287 7.70369 111.207 7.57244C110.898 7.06443 110.263 6.80017 109.688 6.93201C109.539 6.96599 105.987 7.79451 101.889 9.83943C96.3568 12.5992 92.4924 16.2836 90.712 20.4924C89.2302 23.9974 89.0173 28.2824 90.0687 33.0162C87.8293 30.5172 85.3101 28.331 82.5639 26.4906C81.7254 24.8353 79.5082 20.7601 76.0419 16.501C74.9002 15.0988 72.7041 16.8584 73.8575 18.2746C76.1932 21.1451 77.9512 23.9681 79.0508 25.9076L66.2302 23.4103L54.0493 6.80896C55.2321 6.82537 56.419 6.93962 57.6 7.17107C61.3442 7.90349 65.0427 9.80896 68.5946 12.8336C69.9861 14.0189 71.7934 11.8615 70.42 10.6926C66.4964 7.35154 62.3652 5.23748 58.1407 4.41072C51.692 3.14978 44.1707 4.80505 36.388 9.19959C30.5872 12.475 26.7081 16.0726 26.5463 16.2238C26.0273 16.7084 25.9446 17.5885 26.3792 18.1545C26.948 19.3205 29.1036 23.5269 32.6918 28.0556C34.807 30.7258 37.0377 33.0109 39.3452 34.8888C38.6896 35.4379 38.0516 36.0121 37.4341 36.6162C34.1362 39.8394 31.6111 43.6416 29.9533 47.7982C28.4879 51.4709 27.6998 55.4219 27.6558 59.4941C27.5831 66.1533 29.5141 72.5758 33.2413 78.0684C36.8823 83.4332 41.9723 87.5523 47.9607 89.9799C49.6366 90.6578 50.6963 88.0533 49.0191 87.3736C46.8494 86.4941 44.8111 85.3674 42.9311 84.0273C43.1715 82.6949 43.7292 77.8996 40.5415 72.9355C40.0952 72.2412 41.4293 69.5142 42.2256 67.8853C43.0478 66.2066 43.8963 64.4711 44.2927 62.8369C44.7137 61.1008 44.2399 59.6435 42.9234 58.6211C41.9571 57.8705 40.6922 57.482 39.5774 57.1392C38.8532 56.9166 38.0322 56.6646 37.739 56.4203C37.135 55.9146 36.1487 54.0461 35.3559 52.5455C34.4763 50.8808 33.6389 49.2965 32.7839 48.3209C34.7079 43.7553 37.7983 39.7152 41.6685 36.6244C45.204 39.0308 49.239 40.6914 53.528 41.0277C48.5541 44.8785 46.945 49.7963 49.2449 54.5201C51.9306 60.0361 57.4587 59.1549 62.3358 58.3785C63.1797 58.2437 64.0528 58.1049 64.889 58.0006C65.2028 57.9613 65.2972 58.0469 65.3605 58.1025C66.4284 59.0517 66.3967 63.5851 66.3738 66.8957C66.3428 71.4748 66.3134 75.8002 68.0205 78.0209C68.8913 79.1529 70.1174 79.7318 71.5547 79.7318C72.4162 79.7318 73.3521 79.5244 74.3337 79.1037C78.5787 77.2873 82.9914 71.8205 82.3182 67.4951C81.73 63.7135 81.3407 61.215 82.2584 59.2012C83.1069 57.3373 85.1582 55.6117 89.1979 53.4098C89.6817 55.5865 89.9257 57.8512 89.9004 60.1744C89.8142 68.1045 86.6418 75.5266 80.9683 81.0724C74.6275 87.2705 65.7159 90.3314 56.9004 89.3605C55.1043 89.166 54.7941 91.9586 56.5926 92.1566C66.2419 93.2183 75.9979 89.8668 82.9363 83.0834C89.1481 77.0113 92.6208 68.8867 92.7152 60.2043C92.8407 48.6924 86.9291 38.4935 77.9301 32.6183C79.7896 31.2935 81.1747 30.148 81.9429 29.483C85.2239 31.8349 88.1342 34.7324 90.5555 38.108C96.3679 46.2133 98.6731 56.0939 97.0476 65.9318C93.6904 86.2398 74.4252 100.035 54.0974 96.6789C44.2511 95.0541 35.628 89.6963 29.8155 81.591C24.0025 73.4863 21.6973 63.6045 23.3234 53.7672C23.6154 51.9971 20.84 51.5324 20.5468 53.309C18.7975 63.8881 21.2774 74.514 27.5268 83.2299C33.7773 91.9445 43.0513 97.7066 53.6388 99.4545C55.8531 99.8195 58.0697 100 60.2711 100C68.5922 100 76.687 97.4183 83.5849 92.4795C92.3088 86.234 98.0761 76.9691 99.8242 66.39C101.105 58.6381 100.114 50.8609 97.0341 43.8285C98.4555 43.4096 100.874 42.5963 103.524 41.2744C109.055 38.5146 112.92 34.8303 114.7 30.6215C116.481 26.4115 116.431 21.0748 114.556 15.1885ZM32.866 53.858C33.9133 55.842 34.9038 57.717 35.9329 58.5771C36.6618 59.1859 37.6763 59.4976 38.75 59.8275C41.5008 60.6724 41.8204 61.0873 41.5565 62.1742C41.2328 63.5107 40.4517 65.1068 39.697 66.6496C38.2433 69.6215 36.8706 72.4269 38.1718 74.4543C40.0172 77.3277 40.3333 80.1566 40.3016 81.9162C31.9184 74.3629 28.5049 62.4326 31.6275 51.5892C32.0415 52.2982 32.4766 53.1221 32.866 53.858ZM100.962 26.2211L96.9625 16.5355C98.9088 14.7168 101.167 13.348 103.09 12.3842C104.729 11.5627 106.288 10.9486 107.538 10.5133L100.962 26.2211ZM110.133 11.6037C110.691 12.8037 111.339 14.3511 111.893 16.1002C112.5 18.0197 113.057 20.3986 113.168 22.8801L103.794 26.7443L110.133 11.6037ZM93.3045 21.5875C93.7197 20.6066 94.2563 19.6972 94.8761 18.8576L99.4295 29.882L95.3435 39.6449C94.7694 38.4279 94.0932 36.8295 93.5197 35.0137C92.3686 31.3779 91.3975 26.0963 93.3045 21.5875ZM102.322 38.7297C100.745 39.5207 99.2401 40.1195 98.0145 40.5513L102.255 30.4222L113.048 25.972C112.892 27.1803 112.593 28.3779 112.107 29.5263C110.201 34.0351 105.733 37.0205 102.322 38.7297ZM51.57 37.9293C51.0727 37.832 50.5819 37.7131 50.0981 37.5777L65.6754 26.1683L78.5019 28.6662C73.8294 32.3447 62.4584 40.0609 51.57 37.9293ZM37.3338 29.1303C34.0025 25.5426 31.5607 21.7064 30.1586 19.2502L46.4812 22.4301L37.3338 29.1303ZM40.2166 10.3668L47.0459 19.6744L30.6177 16.4746C32.686 14.8428 36.1 12.3929 40.2166 10.3668ZM51.1179 20.4678L42.8384 9.18318C45.3172 8.16541 47.9777 7.36443 50.7051 7.00818L62.1587 22.6176L51.1179 20.4678ZM50.2418 23.1625L61.9154 25.4359L46.9333 36.4088C44.108 35.1051 41.5653 33.2306 39.3405 31.1471L50.2418 23.1625ZM88.4333 50.6254C83.3591 53.3265 80.8745 55.4482 79.6958 58.0363C78.4298 60.8154 78.8936 63.7984 79.5357 67.9269C79.9151 70.3615 77.0194 74.8949 73.2254 76.5185C71.8215 77.1191 70.8217 77.0482 70.2523 76.307C69.134 74.8527 69.1645 70.4512 69.1886 66.915C69.222 62.0224 69.2513 57.7973 67.2312 56.0014C66.5046 55.3557 65.5751 55.0826 64.5425 55.2092C63.6576 55.3193 62.7598 55.4623 61.8925 55.6006C56.7186 56.4244 53.4629 56.7543 51.7764 53.2896C49.0438 47.6781 54.5753 43.5215 57.0805 41.9951C57.5906 41.6846 58.0639 41.3183 58.5037 40.9105C64.5583 40.1875 70.2793 37.5918 75.3775 34.3404C81.4902 37.9896 86.1826 43.7646 88.4333 50.6254Z" fill="#FFEEBE"/>
</svg>
