<svg width="120" height="120" viewBox="0 0 120 120" fill="none" xmlns="http://www.w3.org/2000/svg">
<circle cx="60" cy="60" r="52" fill="#2D6420"/>
<path d="M51.063 71.5208H38.7471C37.5444 71.5208 36.5659 72.4993 36.5659 73.7019V80.2316C36.5659 81.4344 37.5444 82.4128 38.7471 82.4128H51.063C52.2656 82.4128 53.2442 81.4344 53.2442 80.2316V73.7019C53.2442 72.4993 52.2656 71.5208 51.063 71.5208ZM50.4317 79.6005H39.3786V74.3334H50.4317V79.6005ZM83.3535 65.8958H95.6693C96.8719 65.8958 97.8504 64.9174 97.8504 63.7146V57.1849C97.8504 55.9821 96.8719 55.0037 95.6693 55.0037H83.3535C82.1509 55.0037 81.1723 55.9823 81.1723 57.1849V63.7146C81.1723 64.9174 82.1509 65.8958 83.3535 65.8958ZM83.9848 57.8162H95.0378V63.0833H83.9848V57.8162ZM105.469 87.5625H105.188V32.7412C105.188 31.8086 104.677 30.9548 103.856 30.5124C103.036 30.0707 102.044 30.1149 101.267 30.6264L79.5 44.9237V32.6175C79.5 31.6991 79.0247 30.8781 78.2284 30.4213C77.4321 29.9647 76.4833 29.9687 75.6911 30.432L50.625 45.0802V32.4881C50.625 31.6003 50.1735 30.7933 49.4173 30.3296C48.6615 29.8663 47.7383 29.8296 46.95 30.2306L30.6861 38.4741L30.5164 34.8062C30.4573 33.4507 29.3468 32.3888 27.9883 32.3888H25.4531V25.6558L28.5868 22.5221C31.1276 19.9811 32.5271 16.6029 32.5271 13.0095C32.5271 9.41606 31.1276 6.03788 28.5866 3.49687L25.8274 0.737625C25.3519 0.261937 24.7194 0 24.0469 0C23.3743 0 22.7419 0.261937 22.2664 0.737625L19.5069 3.49687C16.9661 6.03788 15.5666 9.41606 15.5666 13.0095C15.5666 16.6029 16.9661 19.9813 19.5069 22.5221L22.6406 25.6558V32.3888H20.1056C18.7472 32.3888 17.6366 33.4506 17.5777 34.8024L15.1367 87.5625H14.5312C13.1355 87.5625 12 88.698 12 90.0938V93.4688C12 94.8645 13.1355 96 14.5312 96H105.469C106.865 96 108 94.8645 108 93.4688V90.0938C108 88.698 106.865 87.5625 105.469 87.5625ZM21.4959 20.5335C19.4861 18.5237 18.3793 15.8516 18.3793 13.0095C18.3793 10.1674 19.4861 7.49531 21.4958 5.48569L24.0469 2.93456L26.5978 5.4855C28.6076 7.49531 29.7144 10.1674 29.7144 13.0093C29.7144 15.8514 28.6076 18.5235 26.5978 20.5333L25.4531 21.678V13.8232C25.4531 13.0466 24.8237 12.417 24.0469 12.417C23.2701 12.417 22.6406 13.0466 22.6406 13.8232V21.6782L21.4959 20.5335ZM20.3749 35.2013H27.7189L28.0626 42.6268H20.0314L20.3749 35.2013ZM105.188 93.1875H14.8125V90.375H80.6269C81.4037 90.375 82.0331 89.7454 82.0331 88.9688C82.0331 88.1921 81.4037 87.5625 80.6269 87.5625H32.9571L31.7153 60.7222C31.6793 59.9464 31.0196 59.3473 30.2454 59.3824C29.4696 59.4182 28.8698 60.0763 28.9056 60.8522L30.1416 87.5625H17.9522L19.9012 45.4393H28.1927L28.6725 55.8099C28.7083 56.5858 29.367 57.1824 30.1423 57.1498C30.9182 57.1138 31.518 56.4559 31.4822 55.68L30.8286 41.5551L47.8125 32.9466V45.57C47.8125 46.4884 48.2878 47.3094 49.0841 47.7662C49.8808 48.2228 50.8296 48.219 51.6214 47.7555L76.6875 33.1073V45.4463C76.6875 46.3789 77.1975 47.2327 78.0186 47.6751C78.8387 48.1168 79.8315 48.0728 80.6077 47.5611L102.375 33.2638V87.5625H86.2519C85.4751 87.5625 84.8456 88.1921 84.8456 88.9688C84.8456 89.7454 85.4751 90.375 86.2519 90.375H105.188V93.1875ZM97.8503 80.2318V73.7021C97.8503 72.4993 96.8717 71.5209 95.6691 71.5209H83.3533C82.1507 71.5209 81.1721 72.4995 81.1721 73.7021V80.2318C81.1721 81.4346 82.1507 82.413 83.3533 82.413H95.6691C96.8717 82.413 97.8503 81.4344 97.8503 80.2318ZM95.0378 79.6005H83.9848V74.3334H95.0378V79.6005ZM51.063 55.0037H38.7471C37.5444 55.0037 36.5659 55.9823 36.5659 57.1849V63.7146C36.5659 64.9174 37.5444 65.8958 38.7471 65.8958H51.063C52.2656 65.8958 53.2442 64.9174 53.2442 63.7146V57.1849C53.2442 55.9823 52.2656 55.0037 51.063 55.0037ZM50.4317 63.0833H39.3786V57.8162H50.4317V63.0833ZM73.3659 71.5208H61.0502C59.8476 71.5208 58.869 72.4993 58.869 73.7019V80.2316C58.869 81.4344 59.8476 82.4128 61.0502 82.4128H73.3659C74.5688 82.4128 75.5473 81.4344 75.5473 80.2316V73.7019C75.5473 72.4993 74.5688 71.5208 73.3659 71.5208ZM72.7348 79.6005H61.6817V74.3334H72.7348V79.6005ZM73.3659 55.0037H61.0502C59.8476 55.0037 58.869 55.9823 58.869 57.1849V63.7146C58.869 64.9174 59.8476 65.8958 61.0502 65.8958H73.3659C74.5688 65.8958 75.5473 64.9174 75.5473 63.7146V57.1849C75.5473 55.9823 74.5688 55.0037 73.3659 55.0037ZM72.7348 63.0833H61.6817V57.8162H72.7348V63.0833Z" fill="#FFEEBE"/>
</svg>
