<svg width="24" height="24" viewBox="0 0 24 24" fill="none" xmlns="http://www.w3.org/2000/svg">
<path d="M17.3767 0H6.62299C2.97108 0 0 2.97122 0 6.62313V17.3769C0 21.0289 2.97108 24 6.62299 24H17.3767C21.0289 24 24 21.0288 24 17.3769V6.62313C24.0001 2.97122 21.0289 0 17.3767 0ZM21.8707 17.3769C21.8707 19.8548 19.8548 21.8706 17.3769 21.8706H6.62299C4.14522 21.8707 2.1294 19.8548 2.1294 17.3769V6.62313C2.1294 4.14537 4.14522 2.1294 6.62299 2.1294H17.3767C19.8546 2.1294 21.8706 4.14537 21.8706 6.62313V17.3769H21.8707Z" fill="#FFFEFA"/>
<path d="M12.0002 5.81616C8.59016 5.81616 5.81598 8.59034 5.81598 12.0004C5.81598 15.4102 8.59016 18.1843 12.0002 18.1843C15.4102 18.1843 18.1844 15.4102 18.1844 12.0004C18.1844 8.59034 15.4102 5.81616 12.0002 5.81616ZM12.0002 16.0547C9.76445 16.0547 7.94537 14.2359 7.94537 12.0002C7.94537 9.76435 9.76431 7.94542 12.0002 7.94542C14.236 7.94542 16.055 9.76435 16.055 12.0002C16.055 14.2359 14.2359 16.0547 12.0002 16.0547Z" fill="#FFFEFA"/>
<path d="M18.4436 4.01025C18.0333 4.01025 17.6303 4.17635 17.3406 4.46736C17.0494 4.75696 16.882 5.16013 16.882 5.57181C16.882 5.98222 17.0496 6.38524 17.3406 6.67626C17.6302 6.96586 18.0333 7.13337 18.4436 7.13337C18.8553 7.13337 19.257 6.96586 19.5481 6.67626C19.8391 6.38524 20.0052 5.98207 20.0052 5.57181C20.0052 5.16013 19.8391 4.75696 19.5481 4.46736C19.2585 4.17635 18.8553 4.01025 18.4436 4.01025Z" fill="#FFFEFA"/>
</svg>
