<svg width="24" height="20" viewBox="0 0 24 20" fill="none" xmlns="http://www.w3.org/2000/svg">
<g clip-path="url(#clip0)">
<path d="M23.6257 2.30833C22.7564 2.69984 21.8223 2.96448 20.8418 3.08347C21.8425 2.47423 22.6111 1.50952 22.973 0.359922C22.0364 0.924129 20.9991 1.33378 19.895 1.55451C19.0109 0.597763 17.7511 0 16.357 0C13.6801 0 11.5099 2.20401 11.5099 4.92263C11.5099 5.30849 11.5528 5.6842 11.6354 6.04451C7.60709 5.83918 4.03551 3.87938 1.64489 0.900978C1.22766 1.62804 0.988584 2.47367 0.988584 3.37586C0.988584 5.0838 1.84428 6.59061 3.14489 7.47338C2.35034 7.44783 1.60295 7.22636 0.949502 6.85766C0.949041 6.87819 0.949041 6.89881 0.949041 6.91953C0.949041 9.30467 2.61986 11.2943 4.83715 11.7467C4.4305 11.8591 4.00224 11.9194 3.56018 11.9194C3.24783 11.9194 2.94421 11.8885 2.6482 11.8309C3.26505 13.7866 5.05507 15.2101 7.1761 15.2497C5.51722 16.5702 3.42724 17.357 1.15627 17.357C0.765019 17.357 0.37921 17.3338 0 17.2881C2.14504 18.685 4.69288 19.5 7.43011 19.5C16.3456 19.5 21.221 11.9987 21.221 5.49339C21.221 5.27997 21.2162 5.06771 21.207 4.85651C22.1541 4.16249 22.9759 3.29549 23.6257 2.30833Z" fill="#FFFEFA"/>
</g>
<defs>
<clipPath id="clip0">
<rect width="24" height="19.5" fill="white"/>
</clipPath>
</defs>
</svg>
